<?xml version="1.0" encoding="utf-8"?>
<!-- Generator: Adobe Illustrator 21.1.0, SVG Export Plug-In . SVG Version: 6.00 Build 0)  -->
<svg version="1.0" xmlns="http://www.w3.org/2000/svg" xmlns:xlink="http://www.w3.org/1999/xlink" x="0px" y="0px"
	 viewBox="0 0 994.9208 306.148" style="enable-background:new 0 0 994.9208 306.148;" xml:space="preserve">
<style type="text/css">
	.st0{fill:#F59D1F;}
	.st1{fill:#9C9D9D;}
	.st2{fill:#326A99;}
	.st3{fill:#FFD539;}
</style>
<g id="Ebene_2">
	<g>
		<path class="st0" d="M360.3822,181.773h21.7788v15.8398c7.02-9.9004,16.9194-17.8193,32.3989-17.8193
			c22.3188,0,44.0981,17.6387,44.0981,49.3174v0.3604c0,31.499-21.5991,49.3174-44.0981,49.3174
			c-15.8394,0-25.7393-7.9189-32.3989-16.7393v43.5586h-21.7788V181.773z M436.519,229.4712v-0.3604
			c0-18.3594-12.4194-30.4189-27.1787-30.4189c-14.7598,0-27.7192,12.2402-27.7192,30.4189v0.3604
			c0,18.1787,12.9595,30.419,27.7192,30.419C424.2792,259.8902,436.519,248.19,436.519,229.4712z"/>
		<path class="st0" d="M531.5575,181.773h22.6787l-37.7979,97.7363c-7.5605,19.4385-16.0195,26.6387-31.3193,26.6387
			c-8.999,0-15.8389-2.1602-22.4985-5.7598l7.3794-16.1992c3.96,2.1602,8.2793,3.5996,12.7793,3.5996
			c6.1201,0,9.8994-2.7002,13.5-10.7998l-39.5986-95.2158h23.3984l26.8193,70.5566L531.5575,181.773z"/>
	</g>
	<path class="st1" d="M279.753,174.81l8.569,109.335h-60.236l6.535-82.24C247.67,191.946,262.645,182.661,279.753,174.81
		 M277.13,141.342c-11.901,1.22-24.699,3.016-38.143,5.613l9.934-125.015h18.85L277.13,141.342z M382.699,150.301
		c0-0.737-0.974-1.168-3.753-1.34c-1.912-0.119-4.365-0.131-5.653-0.134c-22.083-0.051-46.939,1.839-73.077,7.693l-0.626-7.944
		c18.073-3.504,37.335-5.475,57.81-5.475c0.961,0,3.036,0.085,3.288-0.765c0.29-0.979-0.567-1.304-1.755-1.559
		c0,0-1.837-0.358-4.862-0.58c-8.698-0.638-28.541-1.969-55.183-0.55L287.897,0h-59.244l-12.098,151.935
		C144.975,169.907,60.775,211.654,0,306.141l84.937,0.007c0,0,61.544-116.51,193.154-152.547l0.672,8.579
		c-59.446,18.13-123.264,58.633-175.118,143.961l52.069,0.007c0,0,14.266-42.893,55.217-83.582l-6.656,83.582h107.717
		l-11.011-139.905c22.843-8,48.946-13.434,78.712-14.901C381.441,151.255,382.699,151.151,382.699,150.301"/>
	<path class="st1" d="M663.1849,229.108c0-31.68-21.78-49.32-44.1-49.32c-15.48,0-25.38,7.92-32.4,17.82v-15.84h-21.78v46.862
		c9.811-8.483,24.269-20.269,35.603-26.304c4.016-2.344,8.588-3.638,13.357-3.638c14.76,0,27.18,12.06,27.18,30.42v0.36
		c0,18.72-12.24,30.42-27.18,30.42c-14.76,0-27.72-12.24-27.72-30.42v-0.36c0-1.044,0.054-2.063,0.138-3.067
		c-6.356,4.212-15.27,12.312-21.3781,18.112v61.455h21.78v-43.56c6.66,8.82,16.56,16.74,32.4,16.74c22.5,0,44.1-17.82,44.1-49.32
		V229.108z M720.2438,279.508l37.8-97.74h-22.68l-24.66,70.56l-26.82-70.56h-23.4l39.6,95.22c-3.6,8.1-7.38,10.8-13.5,10.8
		c-4.5,0-8.82-1.44-12.78-3.6l-7.38,16.2c6.66,3.6,13.5,5.76,22.5,5.76C704.2239,306.148,712.6839,298.948,720.2438,279.508
		 M766.3218,276.808h21.78V150.801h-21.78V276.808z M878.2819,229.828c0,16.38-11.16,30.06-28.8,30.06
		c-16.921,0-28.98-13.86-28.98-30.42v-0.36c0-16.56,11.16-30.24,28.62-30.24c17.1,0,29.16,13.86,29.16,30.6V229.828z
		 M900.0609,229.468v-0.36c0-27.18-21.419-49.32-50.579-49.32c-29.1609,0-50.7599,22.5-50.7599,49.68v0.36
		c0,27,21.42,49.14,50.4,49.14C878.4619,278.968,900.0609,256.468,900.0609,229.468 M973.1408,276.808h21.78v-60.66
		c0-21.96-12.42-36.36-33.84-36.36c-14.7599,0-23.58,7.74-29.7,16.56v-14.58h-21.78v95.04h21.78v-53.64
		c0-14.76,8.8199-23.58,21.42-23.58c12.96,0,20.34,8.46,20.34,23.22V276.808z"/>
	<g>
		<path id="path1948_1_" class="st2" d="M75.4828,0.0013c-6.3,0.0293-12.3163,0.5666-17.6101,1.5033
			C42.278,4.2596,39.4466,10.0263,39.4466,20.6609V34.706h36.8523v4.6817H39.4466H25.6163c-10.7103,0-20.0886,6.4375-23.022,18.6839
			c-3.3836,14.0372-3.5337,22.7966,0,37.4536c2.6196,10.9101,8.8755,18.6839,19.5858,18.6839h12.6707v-16.837
			c0-12.1637,10.5243-22.8931,23.0219-22.8931h36.8093c10.2464,0,18.4262-8.4366,18.4262-18.7268V20.6609
			c0-9.9872-8.4253-17.4895-18.4262-19.1563C88.3514,0.4507,81.7828-0.028,75.4828,0.0013z M55.5534,11.2975
			c3.8066,0,6.9152,3.1594,6.9152,7.044c0,3.8709-3.1086,7.0011-6.9152,7.0011c-3.8202,0-6.9152-3.1302-6.9152-7.0011
			C48.6382,14.4568,51.7332,11.2975,55.5534,11.2975z"/>
		<path id="path1950_1_" class="st3" d="M117.7041,39.3877v16.3645c0,12.6872-10.7563,23.3656-23.0219,23.3656H57.8728
			c-10.0827,0-18.4261,8.6294-18.4262,18.7268v35.0913c0,9.9872,8.6846,15.8615,18.4262,18.7268
			c11.6654,3.4301,22.8518,4.05,36.8093,0c9.2777-2.6862,18.4262-8.0922,18.4262-18.7268v-14.0451H76.2989v-4.6817h36.8094h18.4262
			c10.7103,0,14.7014-7.4707,18.4261-18.6839c3.8475-11.5438,3.6838-22.645,0-37.4536
			c-2.6469-10.6622-7.7022-18.6839-18.4261-18.6839H117.7041z M97.0015,128.2542c3.8202,0,6.9152,3.1302,6.9152,7.0011
			c0,3.8847-3.0949,7.044-6.9152,7.044c-3.8066,0-6.9152-3.1594-6.9152-7.044C90.0863,131.3843,93.1949,128.2542,97.0015,128.2542z"
			/>
	</g>
</g>
<g id="Ebene_3">
</g>
</svg>
